<svg width="116" height="25" viewBox="0 0 116 25" fill="none" xmlns="http://www.w3.org/2000/svg">
<g clip-path="url(#clip0_2061_4399)">
<path d="M6.19532 1.60599C10.3076 -0.562527 15.4785 -0.409453 19.4824 1.96679C15.8034 2.98728 11.7787 2.96175 8.42098 5.01004C6.62518 6.14713 5.12629 7.87466 4.44849 9.97019C3.36892 13.3122 4.60221 17.3357 7.39725 19.3406C9.18609 20.6454 11.5095 21.305 13.6581 20.689C15.0836 20.3137 16.2645 19.3333 17.3301 18.3164C20.8414 14.8468 24.1538 11.1514 27.8046 7.83097C28.8038 8.82591 29.7577 9.86461 30.701 10.9215C28.4091 13.5748 25.9356 16.0461 23.5491 18.6078C21.2991 20.933 18.9268 23.342 15.8559 24.4098C12.8512 25.4448 9.51818 25.0366 6.62162 23.823C4.08159 22.7697 2.22288 20.4627 1.08381 17.9368C-1.52956 12.2293 0.74165 4.52555 6.19532 1.60599Z" fill="white"/>
<path d="M24.0818 0.927857C25.5039 0.129691 27.153 -0.0962905 28.7496 0.0349138C33.1414 0.351992 37.1241 3.46811 38.9447 7.60083C41.2016 12.8272 39.5002 19.5953 34.8639 22.7624C31.5203 25.1496 27.0027 25.1131 23.4742 23.1814C24.2324 22.0516 24.9171 20.7834 26.0317 19.9962C27.2475 20.0253 28.4494 20.4408 29.6758 20.2586C31.8245 19.9196 33.7949 18.5274 34.8814 16.5593C37.1909 12.8673 35.7584 7.36408 32.1528 5.19186C29.791 3.83244 26.6957 4.07298 24.5573 5.78591C21.5805 8.12211 19.037 10.9757 16.3749 13.669C15.711 14.296 15.0158 15.0868 14.0515 15.0905C12.2836 15.1888 10.5157 15.0795 8.74805 15.0577C11.2846 12.1565 14.1321 9.57983 16.892 6.91911C19.184 4.79796 21.3217 2.39649 24.0818 0.927857Z" fill="white"/>
<path d="M50.2489 25C45.6412 25 42.837 23.0418 41.8359 19.1257L47.0367 17.586C47.6436 19.2812 48.8086 20.1288 50.5318 20.1288C51.2049 20.1288 51.7281 19.9554 52.1013 19.6085C52.4746 19.2615 52.6611 18.8019 52.6611 18.2297C52.6611 17.6825 52.5338 17.2712 52.2792 16.9959C52.021 16.7204 51.6129 16.4629 51.0549 16.2233C47.8424 14.8641 46.2011 14.1595 46.1316 14.1095C44.9213 13.4908 43.9481 12.6736 43.2122 11.6577C42.4796 10.642 42.1134 9.26319 42.1134 7.52137C42.1134 5.32532 42.8058 3.52273 44.1905 2.11375C45.5753 0.704584 47.5146 0 50.0087 0C52.3352 0 54.1909 0.561551 55.5754 1.6846C56.9636 2.80765 57.8077 4.39569 58.1076 6.44866L52.8702 7.59676C52.4272 5.87643 51.4035 5.01623 49.799 5.01623C49.1921 4.99119 48.6915 5.15214 48.2973 5.49907C47.8997 5.846 47.701 6.31813 47.701 6.91542C47.701 7.74879 48.2015 8.42833 49.2025 8.9541C49.6455 9.16869 50.46 9.52634 51.6459 10.027C52.8353 10.5313 53.6968 10.914 54.2305 11.1752C55.4897 11.7975 56.5029 12.5861 57.2703 13.5411C58.0377 14.4961 58.4214 15.8444 58.4214 17.5862C58.4214 19.7823 57.7412 21.567 56.3809 22.9404C55.0171 24.3138 52.973 25 50.2489 25ZM68.1841 24.5333H62.5282V0.466204H70.3137C72.0855 0.466204 73.4598 0.6808 74.4365 1.11001C75.7655 1.7073 76.8014 2.62648 77.5444 3.86757C78.2907 5.10866 78.664 6.58939 78.664 8.30973C78.664 10.1016 78.2506 11.6288 77.424 12.8913C76.5973 14.1575 75.4271 15.0409 73.9134 15.5416C73.0065 15.8313 71.8885 15.9762 70.5595 15.9762H68.1843L68.1841 24.5333ZM68.0795 5.69714V10.8529H70.1043C70.9449 10.8529 71.5501 10.733 71.9198 10.4934C72.5965 10.0642 72.9348 9.32383 72.9348 8.27234C72.9348 7.19938 72.586 6.459 71.8884 6.05128C71.4699 5.81522 70.8525 5.69719 70.0363 5.69719L68.0795 5.69714ZM87.8671 24.5333H82.2059V0.466204H89.9962C91.7646 0.466204 93.1389 0.6808 94.119 1.11001C95.4441 1.7073 96.4805 2.62648 97.2269 3.86757C97.9695 5.10866 98.3413 6.58939 98.3413 8.30973C98.3413 10.1016 97.9277 11.6288 97.1014 12.8913C96.278 14.1575 95.1094 15.0409 93.5959 15.5416C92.6855 15.8313 91.5676 15.9762 90.2422 15.9762H87.8668L87.8671 24.5333ZM87.7625 5.69714V10.8529H89.7873C90.6245 10.8529 91.2297 10.733 91.6029 10.4934C92.2795 10.0642 92.6179 9.32383 92.6179 8.27234C92.6179 7.19938 92.2673 6.459 91.5662 6.05128C91.1476 5.81522 90.5321 5.69719 89.7193 5.69719L87.7625 5.69714ZM115.613 24.5333H101.889V0.466204H107.545V18.9806H116L115.613 24.5333Z" fill="white"/>
</g>
<defs>
<clipPath id="clip0_2061_4399">
<rect width="116" height="25" fill="white"/>
</clipPath>
</defs>
</svg>
